<svg width="149" height="42" viewBox="0 0 149 42" fill="none" xmlns="http://www.w3.org/2000/svg">
<path d="M58.288 29.36C57.264 29.36 56.248 29.264 55.24 29.072C54.232 28.88 53.408 28.624 52.768 28.304V25.088C53.616 25.504 54.496 25.816 55.408 26.024C56.32 26.232 57.192 26.336 58.024 26.336C58.952 26.336 59.656 26.176 60.136 25.856C60.616 25.536 60.856 25.088 60.856 24.512C60.856 24.096 60.736 23.744 60.496 23.456C60.256 23.168 59.904 22.912 59.44 22.688C58.992 22.448 58.296 22.136 57.352 21.752C55.784 21.112 54.648 20.4 53.944 19.616C53.24 18.816 52.888 17.832 52.888 16.664C52.888 15.72 53.144 14.888 53.656 14.168C54.168 13.432 54.888 12.864 55.816 12.464C56.744 12.064 57.816 11.864 59.032 11.864C60.024 11.864 60.904 11.944 61.672 12.104C62.44 12.264 63.192 12.512 63.928 12.848V15.968C62.52 15.264 61.112 14.912 59.704 14.912C58.808 14.912 58.104 15.072 57.592 15.392C57.08 15.696 56.824 16.136 56.824 16.712C56.824 17.128 56.944 17.472 57.184 17.744C57.424 18.016 57.76 18.256 58.192 18.464C58.624 18.672 59.328 18.976 60.304 19.376C61.44 19.856 62.328 20.32 62.968 20.768C63.608 21.2 64.08 21.72 64.384 22.328C64.688 22.92 64.84 23.656 64.84 24.536C64.84 26.056 64.288 27.24 63.184 28.088C62.096 28.936 60.464 29.36 58.288 29.36ZM76.7046 27.968C76.2086 28.416 75.5926 28.76 74.8566 29C74.1206 29.24 73.3366 29.36 72.5046 29.36C71.3206 29.36 70.2646 29.104 69.3366 28.592C68.4086 28.064 67.6886 27.336 67.1766 26.408C66.6646 25.48 66.4086 24.416 66.4086 23.216C66.4086 22 66.6646 20.936 67.1766 20.024C67.7046 19.096 68.4246 18.384 69.3366 17.888C70.2646 17.376 71.3206 17.12 72.5046 17.12C74.2166 17.12 75.6566 17.664 76.8246 18.752V17.48H80.3286V34.256H76.7046V27.968ZM73.4406 26.528C74.1926 26.528 74.8646 26.328 75.4566 25.928C76.0646 25.528 76.4806 24.992 76.7046 24.32V22.136C76.4486 21.464 76.0246 20.936 75.4326 20.552C74.8566 20.152 74.1926 19.952 73.4406 19.952C72.4646 19.952 71.6646 20.248 71.0406 20.84C70.4326 21.432 70.1286 22.224 70.1286 23.216C70.1286 24.208 70.4326 25.008 71.0406 25.616C71.6646 26.224 72.4646 26.528 73.4406 26.528ZM87.4336 29.36C85.8656 29.36 84.6896 28.936 83.9056 28.088C83.1216 27.224 82.7296 26.08 82.7296 24.656V17.48H86.3536V24.272C86.3536 25.776 87.0496 26.528 88.4416 26.528C89.0496 26.528 89.6176 26.384 90.1456 26.096C90.6736 25.808 91.1136 25.376 91.4656 24.8V17.48H95.0896V29H91.5856V27.608C91.0736 28.2 90.4496 28.64 89.7136 28.928C88.9936 29.216 88.2336 29.36 87.4336 29.36ZM101.56 29.36C100.152 29.36 98.9996 29.008 98.1036 28.304C97.2236 27.584 96.7836 26.608 96.7836 25.376C96.7836 24.096 97.2076 23.104 98.0556 22.4C98.9036 21.68 100.104 21.32 101.656 21.32C102.344 21.32 103 21.392 103.624 21.536C104.248 21.68 104.8 21.88 105.28 22.136V21.848C105.28 21.128 105.024 20.6 104.512 20.264C104 19.928 103.216 19.76 102.16 19.76C100.752 19.76 99.4556 20.024 98.2716 20.552V17.912C98.7836 17.688 99.4476 17.504 100.264 17.36C101.08 17.2 101.896 17.12 102.712 17.12C104.792 17.12 106.344 17.552 107.368 18.416C108.392 19.264 108.904 20.456 108.904 21.992V29H105.496V27.944C104.52 28.888 103.208 29.36 101.56 29.36ZM102.544 26.96C103.136 26.96 103.672 26.848 104.152 26.624C104.632 26.4 105.008 26.088 105.28 25.688V24.536C104.464 23.992 103.568 23.72 102.592 23.72C101.92 23.72 101.4 23.864 101.032 24.152C100.68 24.424 100.504 24.832 100.504 25.376C100.504 25.888 100.68 26.28 101.032 26.552C101.384 26.824 101.888 26.96 102.544 26.96ZM116.919 29.36C115.735 29.36 114.679 29.112 113.751 28.616C112.839 28.104 112.119 27.392 111.591 26.48C111.079 25.552 110.823 24.48 110.823 23.264C110.823 22.064 111.079 21 111.591 20.072C112.103 19.144 112.823 18.424 113.751 17.912C114.679 17.384 115.735 17.12 116.919 17.12C117.783 17.12 118.575 17.24 119.295 17.48C120.015 17.72 120.623 18.064 121.119 18.512V11.264H124.743V29H121.239V27.752C120.647 28.312 119.999 28.72 119.295 28.976C118.607 29.232 117.815 29.36 116.919 29.36ZM117.855 26.552C118.607 26.552 119.271 26.352 119.847 25.952C120.439 25.552 120.863 25.016 121.119 24.344V22.16C120.895 21.504 120.479 20.976 119.871 20.576C119.279 20.16 118.607 19.952 117.855 19.952C116.879 19.952 116.079 20.256 115.455 20.864C114.847 21.472 114.543 22.272 114.543 23.264C114.543 24.256 114.847 25.056 115.455 25.664C116.079 26.256 116.879 26.552 117.855 26.552ZM127.264 17.48H130.768V19.136C131.232 18.576 131.88 18.152 132.712 17.864C133.544 17.56 134.488 17.408 135.544 17.408V20.168C134.44 20.168 133.464 20.336 132.616 20.672C131.784 21.008 131.208 21.52 130.888 22.208V29H127.264V17.48ZM140.302 29.36C138.894 29.36 137.742 29.008 136.846 28.304C135.966 27.584 135.526 26.608 135.526 25.376C135.526 24.096 135.95 23.104 136.798 22.4C137.646 21.68 138.846 21.32 140.398 21.32C141.086 21.32 141.742 21.392 142.366 21.536C142.99 21.68 143.542 21.88 144.022 22.136V21.848C144.022 21.128 143.766 20.6 143.254 20.264C142.742 19.928 141.958 19.76 140.902 19.76C139.494 19.76 138.198 20.024 137.014 20.552V17.912C137.526 17.688 138.19 17.504 139.006 17.36C139.822 17.2 140.638 17.12 141.454 17.12C143.534 17.12 145.086 17.552 146.11 18.416C147.134 19.264 147.646 20.456 147.646 21.992V29H144.238V27.944C143.262 28.888 141.95 29.36 140.302 29.36ZM141.286 26.96C141.878 26.96 142.414 26.848 142.894 26.624C143.374 26.4 143.75 26.088 144.022 25.688V24.536C143.206 23.992 142.31 23.72 141.334 23.72C140.662 23.72 140.142 23.864 139.774 24.152C139.422 24.424 139.246 24.832 139.246 25.376C139.246 25.888 139.422 26.28 139.774 26.552C140.126 26.824 140.63 26.96 141.286 26.96Z" fill="black"/>
<path fill-rule="evenodd" clip-rule="evenodd" d="M21.8637 0.663048C22.4712 0.99143 24.3542 1.99776 26.0481 2.89943C29.3941 4.68028 29.3528 4.65568 29.128 4.73276C29.0433 4.76192 24.8855 6.96544 19.8884 9.62962C14.8913 12.2938 9.62472 15.0268 8.18489 15.7032C5.96337 16.7465 5.41146 17.0735 4.5397 17.8622C3.2554 19.0244 2.93632 19.8237 2.97621 21.7783C2.99068 22.4823 3.0492 25.2822 3.10633 28.0004C3.20627 32.7472 3.19904 32.9424 2.9257 32.941C2.48697 32.9389 1.14076 32.3087 0.762087 31.9283C-0.0271304 31.1353 -0.0152725 31.3105 0.00644057 20.7828C0.0283077 10.2049 0.00305094 10.5468 0.815983 9.88277C0.972748 9.75463 3.56123 8.3525 6.56795 6.76705C9.57468 5.1816 13.5246 3.07222 15.3456 2.07982C17.1666 1.08728 18.8643 0.203397 19.1184 0.115648C19.8593 -0.140487 20.6799 0.0232082 21.8637 0.663048ZM18.7744 3.71434C18.5006 3.82427 16.9471 4.6598 15.3225 5.571C13.6979 6.48219 10.561 8.15425 8.35181 9.28673C6.14262 10.4192 4.1809 11.4787 3.99241 11.6414C3.42248 12.1332 3.12758 13.0485 3.24939 13.9484C3.30775 14.3804 3.41231 14.7664 3.48161 14.8059C3.55091 14.8455 7.87875 12.5988 13.099 9.81351C23.5853 4.21807 22.8836 4.71072 21.5136 3.90562C20.7332 3.44697 19.632 3.37003 18.7744 3.71434ZM33.8718 7.09401C34.4388 7.42623 34.9028 7.76699 34.9028 7.85132C34.9028 8.06465 34.3108 8.54265 33.6844 8.83533C33.3953 8.97044 31.3164 10.075 29.0646 11.29C23.5396 14.2711 14.0904 19.2702 12.9956 19.7915C11.6751 20.4203 10.0941 21.4403 9.73421 21.8954C9.47766 22.2201 9.41683 22.5105 9.41683 23.4124C9.41683 24.0259 9.46103 24.5686 9.51508 24.6186C9.62318 24.7185 12.1873 23.4384 14.5399 22.11C15.0707 21.8102 15.5398 21.565 15.5823 21.565C15.6249 21.565 15.9311 21.4067 16.2628 21.2134C16.5945 21.02 17.4074 20.5817 18.0691 20.2395C18.731 19.8973 22.8412 17.7082 27.2031 15.3748C37.6322 9.79587 37.697 9.76273 38.3425 9.66602C38.8313 9.59278 38.964 9.64327 39.4414 10.0841C40.1432 10.7322 40.1844 11.4035 39.5611 12.0325C39.3282 12.2676 38.0981 13.0121 36.8277 13.6872C35.5572 14.3622 31.9191 16.294 28.743 17.9798C22.5137 21.2865 19.9606 22.6464 12.3427 26.715C9.63242 28.1625 7.12048 29.4851 6.76044 29.6542L6.10597 29.9617V25.1499V20.3382L6.52945 19.9714C6.76229 19.7696 7.68056 19.2231 8.56987 18.757C11.0224 17.4714 16.6535 14.4739 24.502 10.2756C32.6358 5.92498 32.1552 6.08824 33.8718 7.09401ZM39.8875 15.9118C39.9385 16.0879 39.9813 16.5606 39.9824 16.9624C39.9841 17.5527 39.8885 17.8248 39.4841 18.3802C38.9299 19.1412 38.7692 19.2377 33.3628 22.0622C29.5004 24.08 12.6067 33.1128 11.8564 33.5614C11.5755 33.7293 11.3447 33.9408 11.3436 34.0313C11.3408 34.271 12.6878 35.056 13.2773 35.1581C14.1897 35.3161 15.2635 34.861 19.7617 32.4094C24.3792 29.8929 32.9795 25.3133 37.3667 23.0351L39.9076 21.7157L39.9496 26.4402C39.9781 29.6448 39.9377 31.2589 39.8239 31.4573C39.7319 31.6183 37.565 32.8621 35.0081 34.2218C32.4517 35.5814 28.2883 37.809 25.7562 39.1717C23.2241 40.5346 20.9074 41.7442 20.608 41.8597C19.8705 42.1442 19.3901 42.0275 17.9644 41.2171L16.7528 40.5285L18.0896 39.8167C18.8249 39.425 21.6074 37.9352 24.2732 36.5056C26.939 35.0761 30.4385 33.2303 32.0499 32.404C33.6613 31.5776 35.204 30.7459 35.4778 30.5557C36.3343 29.9611 36.6601 29.3179 36.6601 28.2215C36.6601 27.6902 36.5939 27.1967 36.5129 27.125C36.4221 27.0445 32.7401 28.9246 26.8951 32.0359C16.7927 37.4138 15.6146 37.9953 14.3134 38.2475C12.7925 38.542 11.2249 37.9571 7.64806 35.7602C5.94736 34.7156 5.61396 33.9053 6.53869 33.0629C6.85453 32.7752 17.2217 27.1769 23.6612 23.8167C24.3574 23.4534 25.3467 22.9279 34.2865 18.1721C36.9544 16.753 39.2851 15.5918 39.4659 15.5918C39.6766 15.5918 39.8279 15.7067 39.8875 15.9118Z" fill="#4D47C3"/>
</svg>
